# xmcd CD database file
#
# Track frame offsets:
#	183
#	14478
#	25973
#	37655
#	61233
#	85228
#	98700
#	112195
#	132128
#	160238
#	177145
#	188783
#	203423
#	219548
#	238083
#	246770
#	266270
#
# Disc length: 3646 seconds
#
# Revision: 9
# Processed by: cddbd v1.5.2PL0 Copyright (c) Steve Scherf et al.
# Submitted via: CDex 1.70beta2
#
DISCID=db0e3c11
DTITLE=Erik Satie - 3 Gymnopédies et autres oeuvres de piano
DYEAR=1984
DGENRE=Classical
TTITLE0=Gymnopédie No.1
TTITLE1=Gymnopédie No.2
TTITLE2=Gymnopédie No.3
TTITLE3=Je te veux
TTITLE4=4 Préludes flasques
TTITLE5=Prélude en tapisserie
TTITLE6=4ème Nocturne
TTITLE7=Vieux Sequins et Vieilles Cuirasses
TTITLE8=Embryons desséchés
TTITLE9=Gnossienne No.1
TTITLE10=Gnossienne No.2
TTITLE11=Gnossienne No.3
TTITLE12=Gnossienne No.4
TTITLE13=Gnossienne No.5
TTITLE14=Gnossienne No.6
TTITLE15=Sonatine bureaucratique
TTITLE16=Le Picadilly
EXTD=YEAR: 1984
EXTT0=
EXTT1=
EXTT2=
EXTT3=
EXTT4=
EXTT5=
EXTT6=
EXTT7=
EXTT8=
EXTT9=
EXTT10=
EXTT11=
EXTT12=
EXTT13=
EXTT14=
EXTT15=
EXTT16=
PLAYORDER=
